<?xml version="1.0" encoding="UTF-8" standalone="no"?>
<svg
   xmlns:dc="http://purl.org/dc/elements/1.1/"
   xmlns:cc="http://creativecommons.org/ns#"
   xmlns:rdf="http://www.w3.org/1999/02/22-rdf-syntax-ns#"
   xmlns:svg="http://www.w3.org/2000/svg"
   xmlns="http://www.w3.org/2000/svg"
   height="48.411957"
   width="249.74001"
   id="svg124"
   version="1.1"
   viewBox="0 0 249.74001 48.411956">
  <metadata
     id="metadata128">
    <rdf:RDF>
      <cc:Work
         rdf:about="">
        <dc:format>image/svg+xml</dc:format>
        <dc:type
           rdf:resource="http://purl.org/dc/dcmitype/StillImage" />
        <dc:title>title line</dc:title>
      </cc:Work>
    </rdf:RDF>
  </metadata>
  <defs
     id="defs4">
    <style
       id="style2">.cls-1{fill:#1a1a1a;}</style>
  </defs>
  <title
     id="title6">title line</title>
  <g
     transform="translate(-0.03)"
     id="Layer_1"
     data-name="Layer 1">
    <path
       d="m 48.62,29.58 -1,-0.09 v -0.27 h 1 z m 93.32,4.3 -0.29,-0.28 c 0.11,-0.09 0.27,-0.28 0.33,-0.25 a 1.68,1.68 0 0 1 0.39,0.37 z m 41.12,10.3 a 2.6,2.6 0 0 1 -0.63,0 c -0.07,0 -0.09,-0.23 -0.14,-0.36 a 2.62,2.62 0 0 1 0.6,-0.09 c 0.05,0.02 0.11,0.27 0.17,0.45 z M 145,33.79 h -0.93 V 33.4 H 145 Z M 167.59,0.37 168.44,0 l 0.14,0.32 -0.86,0.36 z m -18.4,32.74 -0.2,0.35 a 2.26,2.26 0 0 1 -0.27,-0.3 c 0,0 0.08,-0.18 0.11,-0.17 a 1.93,1.93 0 0 1 0.36,0.12 z m 84.54,6.08 -0.46,-0.23 a 2.27,2.27 0 0 1 0.33,-0.48 c 0,0 0.35,0.13 0.35,0.17 a 2.75,2.75 0 0 1 -0.22,0.54 z M 96.52,39.73 96.27,39.45 a 2,2 0 0 1 0.36,-0.13 c 0,0 0.15,0.13 0.14,0.14 a 3.23,3.23 0 0 1 -0.25,0.27 z m 40.85,-5.45 -0.49,-0.57 a 2.51,2.51 0 0 1 0.53,-0.3 c 0.06,0 0.27,0.21 0.25,0.29 a 2.72,2.72 0 0 1 -0.29,0.58 z M 4.32,43.25 3.95,42.74 A 2.38,2.38 0 0 1 4.53,42.5 c 0.08,0 0.2,0.18 0.3,0.27 z m 196.29,-4.31 a 3.7,3.7 0 0 1 -0.24,-0.8 c 0,-0.09 0.22,-0.29 0.3,-0.27 a 2.52,2.52 0 0 1 0.59,0.29 z M 39.13,29.32 h 1.29 v 0.3 l -1.29,0.16 z m 152.27,10.16 -0.6,-0.46 c 0.14,-0.16 0.26,-0.44 0.42,-0.46 0.16,-0.02 0.37,0.2 0.56,0.32 z m -51.6,5.86 h -1.58 v -0.29 l 1.59,-0.2 z M 57.79,30.31 a 3.48,3.48 0 0 1 0.94,-0.28 c 0.13,0 0.25,0.29 0.37,0.46 a 2.63,2.63 0 0 1 -0.74,0.36 c -0.12,0.02 -0.28,-0.25 -0.57,-0.54 z m -2.65,-0.96 -1.38,0.23 -0.08,-0.44 1.38,-0.24 z m 96,0.44 c -0.16,-0.43 -0.39,-0.78 -0.31,-0.88 a 1.08,1.08 0 0 1 0.74,-0.29 c 0.11,0 0.37,0.39 0.32,0.47 a 3.94,3.94 0 0 1 -0.75,0.7 z M 60.6,30 l 1.24,0.12 v 0.38 l -1.27,0.07 z m 38.86,9.23 1.77,-0.21 0.06,0.53 -1.77,0.21 z m -32.08,-9 H 65.5 v -0.61 l 2,-0.13 z m -2.8,9.58 -1.66,0.09 -0.09,-0.55 1.6,-0.38 z m 142.95,1.13 a 3.26,3.26 0 0 1 3.06,-0.32 c -1.16,0.81 -2.14,0.26 -3.07,0.29 z M 70,39.37 l -2.16,0.4 c 0.95,-0.93 0.95,-0.93 2,-0.89 z m -24.12,-8.9 2.51,0.13 c -1.27,0.77 -1.27,0.77 -2.51,-0.13 z m -35.75,3.85 -2.68,0.15 c 1.13,-0.86 1.13,-0.86 2.68,-0.15 z m 56.64,-1.38 2.77,-0.43 c -1.39,1.31 -1.39,1.31 -2.77,0.43 z m 75.69,7.31 c -1,0.71 -1.56,0.7 -2.16,-0.17 0.7,-0.79 1.31,-0.76 2.16,0.17 z m 79.77,0.19 c 0.4,-0.88 1,-1.46 2.63,-1 L 222.61,41 Z M 180.21,44 175.07,44.11 V 43.6 l 5.14,-0.1 z M 9,25.42 4.37,25.72 V 25.08 L 9,24.78 Z M 41.42,43.7 a 3.14,3.14 0 0 1 -3.31,0.14 v -0.53 l 3.28,-0.26 z m 175.03,-0.42 c -1,1.13 -2.33,1 -3.63,0.78 1.07,-0.91 2.36,-0.83 3.63,-0.78 z M 50.09,30.36 h 3.94 c -1.32,0.71 -2.64,1.18 -4,0.5 z M 77.5,29.6 73,30 72.95,29.5 A 8.06,8.06 0 0 1 77.45,29 Z M 20.41,37.46 A 7.2,7.2 0 0 1 21.8,37.29 20,20 0 0 1 26.22,38 C 24.3,38 22.37,37.94 20.45,37.89 A 3.49,3.49 0 0 1 20.41,37.46 Z M 41.26,48 A 5.1,5.1 0 0 1 36.4,47.54 Z m 66.04,-8.83 c -1.3,1.26 -2.64,0.64 -4.53,0.3 a 4.55,4.55 0 0 1 4.53,-0.3 z M 19.15,33.46 26.7,32.89 c -1.31,1.23 -4.25,1.59 -7.55,0.57 z m 178.97,5.11 c -1.62,0.56 -3.2,1.36 -5.05,0.58 -0.25,-1.07 0.33,-1.38 1.26,-1.4 l 3.93,-0.11 -0.17,1 z m -78.19,0.51 a 9.67,9.67 0 0 1 -6.82,0.1 c 1.5,-1.1 4.89,-1.24 6.82,-0.1 z M 135,38.83 c -2.27,1.61 -4.35,0.93 -6.74,0.45 1.55,-1.28 4.57,-1.37 6.74,-0.45 z M 25.13,39.57 a 15.84,15.84 0 0 1 -8.89,0.27 c 2.94,-1.39 5.92,-0.72 8.89,-0.27 z M 18.41,7.63 6.48,8.4 A 13.4,13.4 0 0 1 14.23,7 36.72,36.72 0 0 0 18.44,7.11 Z M 5.11,40.24 c 3,-2 6.06,-0.91 9.1,-0.18 -3.02,0.49 -6.04,0.94 -9.1,0.18 z m 137.8,0.14 c 0.87,-0.47 1.3,-0.9 1.74,-0.92 a 42.85,42.85 0 0 1 8,0.5 c -1.71,1.14 -6.94,1.35 -9.74,0.42 z m 41.89,3.56 c 5.16,0.15 10.31,-1.21 15.47,-0.13 A 59.58,59.58 0 0 1 184.8,43.94 Z M 36.57,43.19 c -0.29,0.31 -0.39,0.51 -0.49,0.51 -2,0 -4,0.09 -6,0 A 89.54,89.54 0 0 1 21,42.57 c 1.61,-0.56 3.26,-0.26 4.9,-0.17 1.83,0.1 3.67,0.17 5.5,0.3 1.66,0.12 3.33,0.3 5.17,0.49 z M 8.11,43.35 a 15.61,15.61 0 0 1 9.55,-0.45 c -1.36,1.57 -3.25,1.57 -9.55,0.45 z M 141.57,29.86 c 0.61,-0.51 1.2,-1.4 1.85,-1.44 a 15.7,15.7 0 0 1 4.17,0.46 9.74,9.74 0 0 1 2.19,1.23 c -2.92,1.48 -5.43,0.24 -7.87,0.52 z m -70.2,9.29 A 57.75,57.75 0 0 1 85.7,37.51 l 0.14,0.55 a 4.23,4.23 0 0 1 -1.32,0.6 c -4.19,0.28 -8.38,0.51 -12.57,0.73 -0.19,0.02 -0.39,-0.15 -0.58,-0.24 z m 95.2,2.2 5.43,-0.55 a 3.07,3.07 0 0 0 0.92,-0.21 7.39,7.39 0 0 1 1.68,-0.82 23,23 0 0 1 3.58,-0.19 8.67,8.67 0 0 1 2.84,0.5 c -2,1.88 -4.67,1.42 -7,1.7 -2.33,0.28 -5.02,1.22 -7.45,-0.43 z m 7.12,-5.01 a 3.47,3.47 0 0 1 1.18,-0.44 c 5,0.14 10,0.33 15,0.75 -1.52,1.12 -2.87,1.8 -4.94,1 -1.83,-0.67 -4,-0.37 -6.06,-0.46 -1.69,-0.08 -3.38,-0.11 -5.07,-0.15 z m 24.39,2.26 c 1.49,1.76 3.49,1.93 5.57,1.71 a 6,6 0 0 1 3.87,0.63 v 0 a 6.93,6.93 0 0 1 -1.38,0.34 c -4.44,0.19 -8.89,0.41 -13.34,0.48 -0.81,0 -1.64,-0.66 -2.45,-1 l 0.14,-0.6 c 0.75,0 1.5,-0.12 2.26,-0.11 1.27,0 2.55,0.12 3.82,0.13 1,0 1.71,-0.38 1.57,-1.57 z M 64.17,33.94 a 8.51,8.51 0 0 1 -1.91,0.65 53,53 0 0 1 -5.49,0.3 c -3.19,0 -6.38,-0.26 -9.56,-0.26 a 26,26 0 0 0 -3.76,0.6 c -1.57,0.24 -3.15,0.5 -4.73,0.62 -0.64,0 -1.5,0.14 -1.79,-1 a 7.85,7.85 0 0 1 4.22,-1.08 4.86,4.86 0 0 0 3.56,-1 c 1.53,-1.25 3.39,-1 5,-0.33 2.62,1 5.14,0.84 7.85,0.42 2.07,-0.32 4.3,0.31 6.45,0.51 z M 48.26,33.5 C 47.9,33.12 47.78,32.92 47.71,32.93 A 2.76,2.76 0 0 0 47.1,33.19 Z M 91,34.66 a 15.84,15.84 0 0 0 -2.64,-0.55 c -2.54,-0.06 -5.1,0.23 -7.49,-1 a 4.48,4.48 0 0 0 -2.1,-0.08 c -2,0.09 -4,0.23 -6,0.3 A 7.47,7.47 0 0 1 71.37,33 3.88,3.88 0 0 1 76.06,31.48 c 1.79,0.56 3.76,1 5.45,-0.56 a 1.89,1.89 0 0 1 1.13,-0.2 c 1,0 1.91,0 2.85,0.08 6.3,0.52 12.59,-0.18 18.88,-0.1 a 64,64 0 0 1 7.08,0.87 c 1.18,0.15 2.37,0.27 3.55,0.4 a 2.61,2.61 0 0 1 1.63,0.61 A 7.76,7.76 0 0 1 115,33 c -6.77,0.23 -13.55,0.4 -20.32,0.63 -1.39,0.07 -2.93,-0.16 -3.68,1.03 z m -3.68,3.25 c 1.58,-0.81 3.36,-0.66 5.06,-0.75 14.35,-0.75 21.91,-0.83 29.17,-1.11 2.93,-0.12 6.23,-0.59 9.06,-0.52 5,0.11 10.07,0.54 15.07,0.28 a 114.88,114.88 0 0 1 12.18,0.29 c 2.86,0.15 5.74,-0.2 8.61,-0.26 2,0 3.91,0 6.34,0.08 a 3.79,3.79 0 0 1 -3.34,1.24 c -5.65,0 -18.09,-0.19 -24.62,-0.18 -1.91,0 -3.82,0.24 -5.74,0.31 -4.3,0.16 -8.6,0.28 -13.14,0.43 l 0.66,1.3 c -2.79,1.09 -3.33,0.93 -3.57,-1.34 -22.48,0.34 -13.16,0.14 -35.68,0.75 z M 239.1,24.43 247,26.17 a 28.4,28.4 0 0 1 -10.24,3.08 l -0.58,2.16 2.69,-0.14 c -0.35,1.12 -1.16,0.92 -1.78,1 -0.91,0.16 -1.31,0.58 -0.38,1.88 -2.81,-1.73 -5.25,-0.81 -7.64,-0.49 -0.72,0.09 -1.34,0.87 -2,1.34 l 0.22,0.53 c 3.16,-0.29 6.33,-0.51 9.47,-0.88 2.69,-0.32 5.36,-0.8 8,-1.25 a 4.71,4.71 0 0 1 3.22,0.64 13,13 0 0 1 -1.64,1.26 c -1.39,0.73 -3,1 -3.92,2.54 -0.13,0.22 -0.54,0.34 -0.85,0.39 -1.65,0.31 -3.3,0.55 -4.95,0.88 -1.1,0.22 -1.64,-0.24 -1.68,-1.28 -3.31,0 -6.5,0 -9.69,0.16 -5.9,0.22 -11.8,0.52 -17.69,0.77 a 3.9,3.9 0 0 1 -3.81,-1.59 l 2.65,-1.15 c -2.56,0 -11.3,0.09 -13.46,0 a 2.67,2.67 0 0 1 -1.77,-0.55 c -1.11,-1.24 -2.51,-1.22 -4,-1.29 -3.1,-0.16 -6.2,-0.42 -9.31,-0.56 -2.14,-0.1 -4.29,0 -6.44,-0.11 a 17,17 0 0 1 -2.81,-0.61 l -2.56,1.11 a 5.77,5.77 0 0 0 -4.26,-3.27 c -2.48,-0.5 -2.49,-0.46 -3.54,-2.71 a 5,5 0 0 0 -0.87,0.64 c -0.77,0.88 -1.47,1.1 -2.38,0.13 a 4.37,4.37 0 0 0 -4.41,-1.18 4.76,4.76 0 0 1 -3.49,-0.23 4.51,4.51 0 0 0 -2.09,-0.1 L 127.33,28 a 119.85,119.85 0 0 1 -16.74,0.06 c -0.68,0 -1.32,-0.69 -2.14,-1.16 a 6,6 0 0 1 -2.5,0.34 c -3.8,-1.09 -7.61,0.57 -11.4,-0.17 -0.8,-0.15 -1.87,0.67 -2.54,0.39 -1.93,-0.83 -3.78,0.48 -5.69,-0.08 -0.9,-0.26 -2,0.32 -3,0.31 -1.82,0 -3.63,-0.22 -5.45,-0.35 -0.47,0 -1,-0.28 -1.4,-0.1 a 18.61,18.61 0 0 1 -5.06,1.14 c -0.72,0.12 -1.33,0.91 -2,1.43 -1.92,-1.46 -4.53,-2.75 -6.5,-1 -1.3,-1 -2.7,-0.84 -4.25,-0.39 -0.88,0.26 -1.95,-0.21 -2.93,-0.19 -4.07,0.08 -8.14,0.24 -12.21,0.31 -2.39,0 -4.79,-0.06 -7.18,0 a 13.4,13.4 0 0 0 -3.51,0.43 l 3.93,0.37 a 6.16,6.16 0 0 1 -1.25,0.44 c -5.59,0.24 -11.18,0.36 -16.76,0.72 -2.69,0.17 -5.34,0.9 -8,1.13 -3.08,0.26 -6.17,0.23 -9.58,0.33 a 5.13,5.13 0 0 1 4.37,-3 c 6.92,-0.86 9.89,-1.18 22.47,-1.53 a 49.3,49.3 0 0 1 6.46,0.11 c 4.19,0.44 8.25,-0.58 12.37,-0.84 l 2,-0.13 C 42,25.7 35.2,26.34 28.42,26.3 v -0.58 a 9,9 0 0 1 1.47,-0.32 c 2,-0.11 4,0 6,-0.27 3.86,-0.45 7.79,-0.12 11.61,-1.07 a 11.25,11.25 0 0 1 2.39,-0.12 c 0.48,0 1,0.17 1.43,0 3.34,-1.56 6.92,-0.9 10.39,-1.2 6.61,-0.56 13.23,-0.95 19.84,-1.35 2.87,-0.18 5.75,-0.23 8.62,-0.35 0.37,0 0.74,-0.09 1.33,-0.16 -1.14,-0.65 -2,-1 -3,-0.32 a 1.27,1.27 0 0 1 -0.92,0.13 C 82.47,19.35 77.4,20.56 72.35,21.02 a 93.28,93.28 0 0 1 -19.56,-0.68 2,2 0 0 1 -1.35,-0.82 5.49,5.49 0 0 1 1.31,-0.4 c 3.91,-0.19 7.82,-0.31 11.73,-0.51 2.23,-0.11 4.45,-0.4 6.68,-0.5 4.7,-0.22 9.41,-0.38 14.11,-0.55 0.24,0 0.55,-0.07 0.71,0 2.15,1.63 4.57,0.81 6.89,0.74 7.26,-0.22 14.53,-0.57 21.79,-0.76 32.07,-0.84 35.47,-0.55 51.52,-0.43 a 3.32,3.32 0 0 0 2.63,-0.76 c 0.91,-0.85 2.2,-0.4 3.51,-0.27 l -0.71,1.12 8.25,0.12 c -0.1,-0.37 -0.1,-0.72 -0.22,-0.76 a 18.63,18.63 0 0 0 -6.44,-1.47 c -5.34,0 -10.67,-0.22 -16,-0.22 -5.74,0 -11.48,0.17 -17.22,0.25 -0.79,0 -1.59,-0.07 -2.38,-0.07 a 17,17 0 0 0 -3.57,0.08 32.38,32.38 0 0 1 -10.22,0.54 40.73,40.73 0 0 0 -5.24,0.17 10.35,10.35 0 0 1 -2.15,-0.06 c -4,-0.72 -8,-0.2 -11.94,-0.29 -1.82,0 -3.64,-0.48 -5.45,-0.4 -8,0.32 -58.2,2.39 -60.11,2.53 -2.95,0.2 -5.88,0.55 -8.83,0.78 C 23.8,18.9 8.83,20.08 7.63,20.13 A 12.79,12.79 0 0 1 5.77,20 L 5.56,19.41 8,18 7.74,17.39 0.54,18.33 c -0.49,-1 1.68,-1.58 -0.51,-2.6 1.66,-0.45 2.7,-0.81 3.77,-1 5.45,-1 11,-1 16.49,-1 1.33,0 2.66,0.6 4,0.62 4.55,0.07 9.12,0.14 13.66,-0.08 2.76,-0.13 5.5,-0.81 8.25,-1.22 1.78,-0.26 2,-0.22 21.77,-1.19 31.2,-1.49 38.63,-1.86 45.69,-2.06 7.42,-0.19 14.85,-0.21 22.27,-0.37 1.5,0 3,-0.44 4.51,-0.49 4.23,-0.14 8.46,-0.18 12.69,-0.27 A 4.31,4.31 0 0 0 155.5,8 3.61,3.61 0 0 0 154.58,7.75 c -5.67,0 -11.34,0 -17,0 -31.18,0.49 -32.64,0.8 -64.66,2 C 64.78,10.06 56.64,10.42 48.5,10.61 39.32,10.82 27.77,10.02 18.87,11.55 14.3,12.4 9.63,12.5 5,12.88 A 10.93,10.93 0 0 1 3.36,12.73 3.52,3.52 0 0 1 6.18,11 q 5.39,-1.08 10.8,-2 a 7.49,7.49 0 0 1 2.39,0 49,49 0 0 0 13.37,-0.19 2.21,2.21 0 0 1 0.48,0 c 3.52,0.35 7,-0.3 10.49,-0.51 2.6,-0.16 5.21,-0.09 7.8,-0.35 a 40.59,40.59 0 0 0 4.88,-1.09 19.2,19.2 0 0 1 3,-0.61 c 3.18,-0.19 6.41,-0.64 9.55,-0.3 4.14,0.45 8.07,-0.68 12.11,-0.8 2.68,-0.08 5.38,0.28 8.07,0.28 2.54,0 5.08,-0.15 7.61,-0.32 2.21,-0.14 4.42,-0.32 6.62,-0.62 a 106.11,106.11 0 0 1 17.69,-0.83 c 5.66,0.19 11.3,-0.31 16.95,-0.5 3.51,-0.12 7,0.07 10.53,-0.07 a 55.44,55.44 0 0 0 6.13,-0.86 c 1.62,-0.25 3.21,-0.94 4.75,0.47 a 2.59,2.59 0 0 0 2.26,0.1 c 3.44,-1.52 7.09,-1.25 10.64,-1.17 7.26,0.15 14.52,0.59 21.78,1 a 20.31,20.31 0 0 1 3.48,0.78 4.21,4.21 0 0 0 1.14,0.29 c 6.49,-0.45 10.53,-1.34 14.83,0.45 1.84,0.76 4.07,0.67 6.14,0.76 5.59,0.25 13.9,0.27 19.14,0.6 A 11.65,11.65 0 0 1 241,6 v 0.59 l -2.84,0.61 v 0.26 h 7.21 a 2.92,2.92 0 0 1 -2.56,1.23 c -16.78,0.84 -19,0.67 -23.21,1.11 a 2.84,2.84 0 0 0 2.49,0.73 c 3.91,0 17.48,-0.3 20.34,-0.27 a 14.92,14.92 0 0 1 3,0.68 l -0.66,1.31 5,0.11 c -2.11,1.82 -5.38,1.18 -5.74,4.49 l 2.62,0.12 c -0.11,1.75 -0.33,2.21 -2.14,2.48 -3.23,0.47 -6.5,0.72 -9.76,1 -0.86,0.08 -1.74,0.05 -2.78,0.08 3.34,2.75 2.18,1.62 11.4,1.23 a 6.21,6.21 0 0 1 2.79,0.57 c -2.04,1.42 -4.73,0.6 -7.06,2.1 z m -55.95,-6.76 15.69,1 c -0.15,-0.62 -0.39,-0.86 -0.65,-0.89 -2.75,-0.31 -5.49,-0.71 -8.24,-0.82 -1.79,-0.07 -3.55,0.11 -4.6,-1.55 z m -92.8,6.68 V 24 c -1.74,-0.06 -3.48,-0.2 -5.22,-0.16 -2.2,0 -4.41,0.45 -6.58,0.28 a 6,6 0 0 0 -4.36,1.25 z M 201.1,17.89 c 1.63,1.19 5.66,1.36 8.77,0.33 z m -2.29,4 c -2.8,-0.88 -3.74,-0.94 -5.64,-0.4 a 10.77,10.77 0 0 0 5.65,0.35 z m -40.89,-14 v 0.6 c 2,0.38 3.9,-0.29 5.84,-0.68 z m 15.37,0.06 c 2.15,0.5 2.15,0.5 3.48,-0.19 z m -76.85,11.76 -0.18,0.68 a 5.69,5.69 0 0 0 1,0.3 4.32,4.32 0 0 0 1,-0.1 v -0.42 z m 5.06,3.57 0.06,0.58 2.87,-0.15 V 23.4 Z m -42.19,2.42 0.1,0.62 2.9,-0.29 V 25.61 Z M 218.64,22.45 V 22.1 L 217.22,22 v 0.35 z M 218.81,7.71 V 7.53 L 216.38,7.3 v 0.35 z m 11.46,11.15 v -0.2 l -2.48,-0.24 v 0.2 z m -27.1,3 V 22 l 1.75,0.17 V 22 Z M 94.33,24.21 V 24.03 L 92.92,23.9 v 0.18 z m 73.55,-16.31 -0.05,0.25 1.34,0.07 V 8.02 Z M 179.37,8 v 0.15 l 1.34,0.13 V 8.16 Z m -71.54,15.32 v 0.29 h 1 V 23.3 Z M 209.91,36 v 0.16 l 1,0.1 V 36.1 Z M 64.78,25.44 v 0.43 l 0.94,-0.17 z"
       style="fill:#1a1a1a"
       id="path120" />
  </g>
</svg>
